<svg width="500" height="500" viewBox="0 0 500 500" fill="none" xmlns="http://www.w3.org/2000/svg">
<ellipse cx="250.5" cy="248.5" rx="180.5" ry="176.5" fill="white"/>
<path d="M431 245C431 341.497 350.119 420 250 420C149.881 420 69 341.497 69 245C69 148.503 149.881 70 250 70C350.119 70 431 148.503 431 245Z" stroke="#134591" stroke-width="10"/>
<mask id="mask0_202_3" style="mask-type:alpha" maskUnits="userSpaceOnUse" x="75" y="75" width="350" height="350">
<circle cx="250" cy="250" r="170" fill="#D9D9D9" stroke="#1F7BD0" stroke-width="10"/>
</mask>
<g mask="url(#mask0_202_3)">
<path d="M140.492 171.069C133.076 171.187 125.861 173.477 119.759 177.652C113.658 181.826 108.944 187.696 106.213 194.521C103.483 201.345 102.858 208.816 104.419 215.99C105.98 223.164 109.656 229.718 114.982 234.824C120.308 239.929 127.045 243.357 134.341 244.673C141.637 245.99 149.164 245.135 155.971 242.219C162.778 239.302 168.558 234.454 172.582 228.288C176.605 222.121 178.691 214.914 178.574 207.576C178.419 197.736 174.319 188.362 167.177 181.516C160.035 174.669 150.436 170.912 140.492 171.069ZM141.432 230.43C136.982 230.501 132.612 229.264 128.874 226.876C125.135 224.489 122.197 221.058 120.429 217.018C118.662 212.977 118.146 208.508 118.945 204.176C119.745 199.845 121.825 195.844 124.922 192.681C128.019 189.518 131.994 187.335 136.344 186.407C140.695 185.478 145.225 185.848 149.363 187.467C153.5 189.087 157.059 191.885 159.589 195.506C162.119 199.128 163.507 203.411 163.576 207.813C163.67 213.717 161.389 219.417 157.236 223.658C153.083 227.9 147.398 230.336 141.432 230.43ZM210.216 310.982L210.099 303.562C209.88 289.787 204.141 276.663 194.142 267.078C184.143 257.493 170.705 252.232 156.782 252.453L126.786 252.928C112.864 253.148 99.5989 258.832 89.9087 268.729C80.2186 278.626 74.8973 291.925 75.1155 305.7L75.233 313.12L90.2312 312.883L90.1136 305.463C89.9578 295.623 93.7587 286.124 100.68 279.055C107.602 271.986 117.077 267.926 127.021 267.768L157.018 267.293C166.962 267.136 176.561 270.893 183.703 277.74C190.845 284.586 194.945 293.96 195.1 303.8L195.218 311.22L210.216 310.982Z" fill="#134590"/>
<path d="M248.492 206.069C241.076 206.187 233.861 208.477 227.759 212.652C221.658 216.826 216.944 222.696 214.213 229.521C211.483 236.345 210.858 243.816 212.419 250.99C213.98 258.164 217.656 264.718 222.982 269.824C228.308 274.929 235.045 278.357 242.341 279.673C249.637 280.99 257.164 280.135 263.971 277.219C270.778 274.302 276.558 269.454 280.582 263.288C284.605 257.121 286.691 249.914 286.574 242.576C286.419 232.736 282.319 223.362 275.177 216.516C268.035 209.669 258.436 205.912 248.492 206.069ZM249.432 265.43C244.982 265.501 240.612 264.264 236.874 261.876C233.135 259.489 230.197 256.058 228.429 252.018C226.662 247.977 226.146 243.508 226.945 239.176C227.745 234.845 229.825 230.844 232.922 227.681C236.019 224.518 239.994 222.335 244.344 221.407C248.695 220.478 253.225 220.848 257.363 222.467C261.5 224.087 265.059 226.885 267.589 230.506C270.119 234.128 271.507 238.411 271.576 242.813C271.67 248.717 269.389 254.417 265.236 258.658C261.083 262.9 255.398 265.336 249.432 265.43ZM318.216 345.982L318.099 338.562C317.88 324.787 312.141 311.663 302.142 302.078C292.143 292.493 278.705 287.232 264.782 287.453L234.786 287.928C220.864 288.148 207.599 293.832 197.909 303.729C188.219 313.626 182.897 326.925 183.116 340.7L183.233 348.12L198.231 347.883L198.114 340.463C197.958 330.623 201.759 321.124 208.68 314.055C215.602 306.986 225.077 302.926 235.021 302.768L265.018 302.293C274.962 302.136 284.561 305.893 291.703 312.74C298.845 319.586 302.945 328.96 303.1 338.8L303.218 346.22L318.216 345.982Z" fill="#134590"/>
<path d="M357.492 179.069C350.076 179.187 342.858 181.323 336.752 185.208C330.646 189.093 325.926 194.553 323.187 200.896C320.449 207.24 319.817 214.182 321.369 220.846C322.922 227.509 326.59 233.594 331.91 238.332C337.231 243.069 343.964 246.247 351.258 247.461C358.552 248.676 366.081 247.874 372.891 245.157C379.701 242.439 385.487 237.928 389.517 232.195C393.547 226.461 395.641 219.762 395.533 212.945C395.388 203.803 391.299 195.098 384.165 188.745C377.03 182.392 367.436 178.912 357.492 179.069ZM358.365 234.22C353.916 234.291 349.547 233.146 345.811 230.933C342.075 228.719 339.141 225.534 337.378 221.782C335.616 218.03 335.104 213.879 335.909 209.853C336.713 205.828 338.797 202.108 341.898 199.166C344.998 196.224 348.976 194.191 353.327 193.324C357.679 192.457 362.209 192.794 366.344 194.295C370.48 195.795 374.035 198.39 376.561 201.752C379.087 205.114 380.47 209.092 380.535 213.182C380.622 218.667 378.335 223.965 374.177 227.911C370.019 231.856 364.332 234.126 358.365 234.22ZM427.058 308.984L426.949 302.09C426.746 289.291 421.021 277.104 411.033 268.21C401.045 259.316 387.613 254.444 373.691 254.664L343.695 255.139C329.772 255.36 316.501 260.655 306.8 269.861C297.099 279.067 291.763 291.429 291.965 304.228L292.075 311.122L307.073 310.884L306.964 303.99C306.819 294.848 310.63 286.018 317.56 279.443C324.489 272.867 333.969 269.084 343.913 268.927L373.909 268.452C383.854 268.294 393.448 271.775 400.582 278.128C407.716 284.481 411.806 293.185 411.95 302.327L412.06 309.221L427.058 308.984Z" fill="#134590"/>
<path d="M200.5 286L205.837 325L209 342V358.852V366.463C207 369 205.5 369 202.5 369C199.5 369 196.5 367.926 194.5 366.463C192.5 365 185 312 185 312" stroke="white" stroke-width="20"/>
<path d="M212 293L216 310.5" stroke="white" stroke-width="6"/>
<path d="M201 361.5L197.5 329L191.5 297" stroke="white" stroke-width="6"/>
<path d="M196.5 307C193.308 308.377 191.593 309.724 189.5 312.5C186.786 316.099 186.745 319.054 186 323.5C184.966 329.665 185.035 333.422 186.5 339.5C187.587 344.012 188.365 346.679 191 350.5C192.648 352.89 193.682 354.253 196 356C200.242 359.197 202.22 361.083 207.5 360.5C213.908 359.792 214.037 359.725 217 354C221.03 346.212 219.5 342 217 333C215.874 328.947 214.624 322.88 213 319C210.772 313.678 209.881 309.255 207.5 304C207.5 304 204.525 296.989 202 292C200.501 289.038 199.624 287.395 198 284.5" stroke="#134590" stroke-width="14"/>
<path d="M311 346V376V394V402.5V408.5" stroke="#134590" stroke-width="15"/>
<path d="M325 394.5V411.5" stroke="white" stroke-width="14"/>
<path d="M188.811 144.016C188.692 142.899 188.189 142.03 187.303 141.408C186.425 140.786 185.283 140.474 183.876 140.474C182.888 140.474 182.04 140.624 181.332 140.922C180.625 141.22 180.084 141.625 179.709 142.136C179.334 142.648 179.142 143.232 179.134 143.888C179.134 144.433 179.257 144.906 179.504 145.307C179.76 145.707 180.105 146.048 180.54 146.33C180.974 146.602 181.456 146.832 181.984 147.02C182.513 147.207 183.045 147.365 183.582 147.493L186.037 148.107C187.026 148.337 187.976 148.648 188.888 149.04C189.808 149.432 190.631 149.926 191.355 150.523C192.088 151.119 192.668 151.839 193.094 152.683C193.52 153.527 193.733 154.516 193.733 155.649C193.733 157.183 193.341 158.534 192.557 159.702C191.773 160.861 190.639 161.768 189.156 162.425C187.682 163.072 185.896 163.396 183.8 163.396C181.763 163.396 179.994 163.081 178.494 162.45C177.003 161.82 175.835 160.899 174.991 159.689C174.156 158.479 173.705 157.004 173.636 155.266H178.303C178.371 156.178 178.652 156.936 179.146 157.541C179.641 158.146 180.284 158.598 181.077 158.896C181.878 159.195 182.773 159.344 183.761 159.344C184.793 159.344 185.696 159.19 186.472 158.884C187.256 158.568 187.869 158.134 188.312 157.58C188.756 157.017 188.982 156.361 188.99 155.611C188.982 154.929 188.781 154.366 188.389 153.923C187.997 153.472 187.447 153.097 186.74 152.798C186.041 152.491 185.223 152.219 184.286 151.98L181.307 151.213C179.151 150.659 177.446 149.82 176.193 148.695C174.949 147.561 174.327 146.057 174.327 144.182C174.327 142.639 174.744 141.288 175.58 140.129C176.423 138.97 177.57 138.071 179.018 137.432C180.467 136.784 182.108 136.46 183.94 136.46C185.798 136.46 187.426 136.784 188.824 137.432C190.23 138.071 191.334 138.962 192.135 140.104C192.936 141.237 193.349 142.541 193.375 144.016H188.811ZM206.322 163.384C204.404 163.384 202.743 162.962 201.336 162.118C199.93 161.274 198.839 160.094 198.064 158.577C197.297 157.06 196.913 155.287 196.913 153.259C196.913 151.23 197.297 149.453 198.064 147.928C198.839 146.402 199.93 145.217 201.336 144.374C202.743 143.53 204.404 143.108 206.322 143.108C208.24 143.108 209.902 143.53 211.308 144.374C212.714 145.217 213.801 146.402 214.568 147.928C215.343 149.453 215.731 151.23 215.731 153.259C215.731 155.287 215.343 157.06 214.568 158.577C213.801 160.094 212.714 161.274 211.308 162.118C209.902 162.962 208.24 163.384 206.322 163.384ZM206.348 159.676C207.387 159.676 208.257 159.391 208.956 158.82C209.654 158.24 210.174 157.464 210.515 156.493C210.865 155.521 211.039 154.439 211.039 153.246C211.039 152.044 210.865 150.957 210.515 149.986C210.174 149.006 209.654 148.226 208.956 147.646C208.257 147.067 207.387 146.777 206.348 146.777C205.282 146.777 204.396 147.067 203.689 147.646C202.99 148.226 202.466 149.006 202.116 149.986C201.775 150.957 201.605 152.044 201.605 153.246C201.605 154.439 201.775 155.521 202.116 156.493C202.466 157.464 202.99 158.24 203.689 158.82C204.396 159.391 205.282 159.676 206.348 159.676ZM228.224 163.384C226.264 163.384 224.581 162.953 223.175 162.092C221.777 161.232 220.699 160.043 219.94 158.526C219.19 157 218.815 155.244 218.815 153.259C218.815 151.264 219.199 149.504 219.966 147.979C220.733 146.445 221.815 145.251 223.213 144.399C224.619 143.538 226.281 143.108 228.199 143.108C229.793 143.108 231.203 143.402 232.43 143.99C233.666 144.57 234.651 145.392 235.384 146.457C236.116 147.514 236.534 148.75 236.636 150.165H232.213C232.034 149.219 231.608 148.43 230.935 147.8C230.27 147.161 229.379 146.841 228.263 146.841C227.317 146.841 226.486 147.097 225.77 147.608C225.054 148.111 224.496 148.835 224.095 149.781C223.703 150.727 223.507 151.861 223.507 153.182C223.507 154.52 223.703 155.67 224.095 156.634C224.487 157.588 225.037 158.325 225.744 158.845C226.46 159.357 227.3 159.612 228.263 159.612C228.945 159.612 229.554 159.484 230.091 159.229C230.636 158.964 231.092 158.585 231.459 158.091C231.825 157.597 232.077 156.996 232.213 156.288H236.636C236.526 157.678 236.116 158.909 235.409 159.983C234.702 161.048 233.739 161.884 232.52 162.489C231.301 163.085 229.869 163.384 228.224 163.384ZM240.436 163V143.364H245.064V163H240.436ZM242.763 140.577C242.03 140.577 241.4 140.334 240.871 139.848C240.343 139.354 240.078 138.761 240.078 138.071C240.078 137.372 240.343 136.78 240.871 136.294C241.4 135.8 242.03 135.553 242.763 135.553C243.505 135.553 244.135 135.8 244.655 136.294C245.184 136.78 245.448 137.372 245.448 138.071C245.448 138.761 245.184 139.354 244.655 139.848C244.135 140.334 243.505 140.577 242.763 140.577ZM255.474 163.396C254.229 163.396 253.109 163.175 252.112 162.732C251.123 162.28 250.339 161.615 249.759 160.737C249.188 159.859 248.903 158.777 248.903 157.49C248.903 156.382 249.107 155.466 249.516 154.741C249.925 154.017 250.484 153.438 251.191 153.003C251.898 152.568 252.695 152.24 253.582 152.018C254.477 151.788 255.401 151.622 256.356 151.52C257.506 151.401 258.44 151.294 259.156 151.2C259.871 151.098 260.391 150.945 260.715 150.74C261.048 150.527 261.214 150.199 261.214 149.756V149.679C261.214 148.716 260.928 147.97 260.357 147.442C259.786 146.913 258.964 146.649 257.89 146.649C256.756 146.649 255.857 146.896 255.192 147.391C254.536 147.885 254.093 148.469 253.863 149.142L249.542 148.528C249.883 147.335 250.445 146.338 251.229 145.537C252.013 144.727 252.972 144.122 254.106 143.722C255.239 143.312 256.492 143.108 257.864 143.108C258.81 143.108 259.752 143.219 260.69 143.44C261.627 143.662 262.484 144.028 263.259 144.54C264.035 145.043 264.657 145.729 265.126 146.598C265.603 147.467 265.842 148.554 265.842 149.858V163H261.393V160.303H261.239C260.958 160.848 260.562 161.359 260.05 161.837C259.548 162.305 258.913 162.685 258.146 162.974C257.387 163.256 256.496 163.396 255.474 163.396ZM256.675 159.996C257.604 159.996 258.41 159.812 259.092 159.446C259.773 159.071 260.298 158.577 260.664 157.963C261.039 157.349 261.227 156.68 261.227 155.956V153.642C261.082 153.761 260.835 153.872 260.485 153.974C260.144 154.077 259.761 154.166 259.335 154.243C258.908 154.32 258.487 154.388 258.069 154.447C257.651 154.507 257.289 154.558 256.982 154.601C256.292 154.695 255.674 154.848 255.129 155.061C254.583 155.274 254.153 155.572 253.837 155.956C253.522 156.331 253.364 156.817 253.364 157.413C253.364 158.266 253.675 158.909 254.298 159.344C254.92 159.778 255.712 159.996 256.675 159.996ZM275.123 136.818V163H270.495V136.818H275.123ZM279.882 163V143.364H284.51V163H279.882ZM282.208 140.577C281.475 140.577 280.845 140.334 280.316 139.848C279.788 139.354 279.524 138.761 279.524 138.071C279.524 137.372 279.788 136.78 280.316 136.294C280.845 135.8 281.475 135.553 282.208 135.553C282.95 135.553 283.581 135.8 284.1 136.294C284.629 136.78 284.893 137.372 284.893 138.071C284.893 138.761 284.629 139.354 284.1 139.848C283.581 140.334 282.95 140.577 282.208 140.577ZM289.013 163V160.06L299.138 147.365V147.199H289.345V143.364H304.801V146.521L295.162 158.999V159.165H305.134V163H289.013ZM317.614 163.384C315.645 163.384 313.945 162.974 312.513 162.156C311.09 161.33 309.995 160.162 309.228 158.653C308.461 157.136 308.077 155.351 308.077 153.297C308.077 151.277 308.461 149.504 309.228 147.979C310.003 146.445 311.086 145.251 312.475 144.399C313.864 143.538 315.496 143.108 317.371 143.108C318.581 143.108 319.723 143.304 320.797 143.696C321.88 144.08 322.834 144.676 323.661 145.486C324.496 146.295 325.152 147.327 325.63 148.58C326.107 149.824 326.346 151.307 326.346 153.028V154.447H310.25V151.328H321.909C321.901 150.442 321.709 149.653 321.334 148.963C320.959 148.264 320.435 147.714 319.762 147.314C319.097 146.913 318.321 146.713 317.435 146.713C316.489 146.713 315.658 146.943 314.942 147.403C314.226 147.855 313.668 148.452 313.267 149.193C312.875 149.926 312.675 150.732 312.667 151.609V154.332C312.667 155.474 312.875 156.455 313.293 157.273C313.711 158.082 314.294 158.705 315.044 159.139C315.794 159.565 316.672 159.778 317.678 159.778C318.351 159.778 318.961 159.685 319.506 159.497C320.051 159.301 320.525 159.016 320.925 158.641C321.326 158.266 321.628 157.801 321.833 157.247L326.154 157.733C325.881 158.875 325.361 159.872 324.594 160.724C323.836 161.568 322.864 162.224 321.679 162.693C320.495 163.153 319.14 163.384 317.614 163.384Z" fill="#134590"/>
</g>
</svg>
